<?xml version="1.0" standalone="no"?>
<!DOCTYPE svg PUBLIC "-//W3C//DTD SVG 20010904//EN"
 "http://www.w3.org/TR/2001/REC-SVG-20010904/DTD/svg10.dtd">
<svg version="1.0" xmlns="http://www.w3.org/2000/svg"
 width="910" height="745" viewBox="18 92 910 745"
 preserveAspectRatio="xMidYMid meet">

<g transform="translate(0.000000,900.000000) scale(0.100000,-0.100000)"
fill="#0c2461" stroke="none">
<path d="M5240 8004 c-364 -42 -563 -82 -835 -171 -520 -170 -987 -453 -1410
-855 -141 -134 -435 -488 -435 -524 0 -6 17 -18 38 -26 123 -51 171 -71 202
-85 19 -9 79 -29 134 -45 55 -15 139 -46 186 -68 48 -22 96 -40 108 -40 30 0
140 -61 247 -137 134 -95 170 -125 232 -195 31 -35 66 -68 78 -75 11 -6 27
-24 34 -39 l12 -27 37 36 c32 31 46 37 97 42 33 4 69 8 81 10 23 5 124 100
124 117 0 6 19 38 43 72 24 33 46 69 50 79 3 9 12 17 19 17 7 0 36 30 63 67
106 140 230 231 490 358 266 130 530 255 540 255 4 0 63 27 130 60 67 33 125
60 129 60 10 0 7 -28 -4 -32 -5 -1 -27 -18 -47 -36 -88 -76 -359 -280 -497
-374 -137 -92 -505 -388 -619 -497 -108 -102 -206 -271 -207 -351 0 -71 40
-128 128 -180 17 -11 32 -24 32 -29 0 -12 -75 -47 -120 -56 -19 -4 -46 -16
-59 -26 -30 -24 -50 -24 -81 1 -19 15 -41 20 -90 20 -83 0 -174 41 -243 108
-53 52 -83 127 -94 237 -12 126 -57 170 -270 269 -81 37 -188 94 -238 126 -65
41 -609 326 -685 358 -10 4 -188 -295 -254 -426 -142 -283 -267 -655 -320
-952 -51 -290 -51 -289 -51 -675 0 -305 3 -393 18 -500 36 -252 94 -491 177
-734 22 -62 37 -118 34 -122 -3 -5 -18 -9 -33 -9 -57 0 -62 -13 -59 -150 l3
-125 40 -3 c50 -4 107 6 100 19 -4 5 -28 9 -55 9 -52 0 -60 8 -60 61 0 33 3
35 73 44 26 3 47 10 47 15 0 5 -24 12 -54 15 -48 6 -55 10 -59 34 -6 30 6 41
49 41 35 0 58 -22 68 -65 11 -43 79 -130 115 -145 42 -17 84 8 79 48 -2 22
-14 32 -61 55 -68 32 -84 60 -63 111 18 42 58 54 109 32 34 -14 55 -46 42 -66
-10 -16 -21 -12 -33 15 -21 46 -103 25 -88 -22 3 -10 30 -29 58 -43 65 -31 86
-66 68 -111 -16 -38 -37 -49 -94 -49 -25 0 -46 -1 -46 -3 0 -9 114 -214 164
-294 369 -596 934 -1093 1576 -1388 322 -147 681 -249 1065 -302 205 -28 714
-25 935 5 421 57 744 152 1090 318 436 211 829 502 1143 849 311 344 603 833
726 1218 17 53 31 98 31 100 0 1 -63 4 -139 5 -161 3 -175 -4 -118 -53 38 -33
49 -65 21 -65 -27 0 -56 21 -50 36 3 8 1 14 -4 14 -5 0 -30 20 -56 45 -30 30
-55 45 -71 45 -28 0 -97 -46 -88 -59 7 -12 -84 -81 -107 -81 -27 0 -22 19 10
31 37 14 82 59 82 81 0 17 -12 18 -148 18 -112 0 -160 -4 -197 -17 -44 -14
-77 -15 -359 -4 -427 15 -563 17 -573 8 -4 -5 -7 -29 -6 -53 1 -37 -1 -44 -18
-44 -15 0 -19 7 -19 38 0 32 -5 41 -25 50 -14 7 -43 12 -63 12 -20 0 -73 9
-117 20 -116 29 -301 37 -390 15 -71 -16 -130 -27 -332 -61 -112 -19 -134 -31
-95 -53 13 -7 14 -13 6 -21 -9 -9 -19 -8 -40 3 -16 8 -52 18 -81 22 -45 6 -60
3 -109 -20 -56 -27 -57 -27 -120 -11 -35 9 -77 16 -93 16 -32 0 -49 16 -34 31
5 5 39 12 76 16 63 6 67 7 67 31 0 23 2 24 38 16 101 -23 224 5 270 62 31 39
72 47 72 14 0 -11 -8 -25 -19 -31 -17 -12 -18 -49 -1 -49 7 0 70 18 146 41 17
5 46 9 65 9 19 0 66 9 104 20 41 12 83 18 101 14 19 -3 35 -1 38 5 12 19 245
6 306 -17 38 -14 126 -29 133 -23 8 8 -13 102 -22 96 -3 -1 -14 12 -23 30 -14
28 -14 34 -3 39 16 6 68 -32 60 -44 -7 -11 28 -81 51 -104 13 -14 28 -15 74
-10 44 5 69 2 105 -12 27 -10 50 -14 53 -8 16 21 122 85 132 79 15 -9 12 -26
-7 -47 -9 -10 -14 -20 -11 -23 3 -3 107 -8 231 -12 125 -3 224 -10 222 -14 -8
-11 119 -22 172 -14 25 4 56 13 68 21 12 8 64 16 124 20 120 8 140 19 148 82
3 23 10 45 15 48 16 10 37 -16 40 -49 3 -29 7 -33 48 -40 54 -10 100 4 100 30
0 10 7 27 15 37 8 11 15 28 15 37 0 22 13 31 34 23 23 -9 20 -57 -4 -79 -25
-23 -26 -61 -2 -74 23 -12 310 -17 322 -5 21 22 110 388 110 453 0 41 -29 51
-156 50 -65 -1 -137 3 -159 9 -104 28 -242 44 -325 38 -83 -5 -137 -1 -288 24
-57 10 -75 10 -87 0 -19 -16 -19 -44 0 -60 8 -7 15 -19 15 -28 0 -8 6 -23 14
-31 19 -22 28 -68 16 -76 -14 -9 -49 30 -80 89 -14 26 -36 54 -49 63 -22 14
-27 14 -58 -1 -19 -9 -40 -30 -50 -51 -20 -41 -61 -52 -48 -12 19 61 18 85 -8
102 -23 15 -29 15 -84 -1 -50 -15 -120 -17 -497 -20 -241 -2 -441 -6 -444 -9
-3 -3 2 -13 10 -22 24 -28 28 -51 12 -64 -12 -10 -22 -5 -59 31 -40 40 -47 42
-85 37 -53 -7 -65 -18 -85 -78 -14 -42 -21 -50 -38 -47 -27 4 -34 41 -16 75
11 20 10 26 -5 41 -14 14 -38 17 -139 19 -68 1 -148 8 -182 17 -33 8 -91 22
-130 32 -38 10 -107 27 -153 38 -46 12 -82 26 -80 31 4 13 118 9 131 -4 6 -6
21 -11 32 -11 12 0 55 -9 96 -19 118 -30 419 -55 419 -34 0 4 -21 25 -47 48
-29 25 -44 46 -39 53 13 21 47 13 79 -20 51 -51 87 -68 142 -68 68 0 117 15
150 46 32 30 54 20 35 -16 -10 -18 -9 -24 1 -31 8 -5 178 -9 378 -9 445 0 553
13 492 59 -16 12 -22 24 -18 35 10 24 38 19 85 -15 34 -25 48 -30 70 -24 15 5
56 7 91 7 78 -2 138 23 163 68 18 32 35 39 44 16 3 -7 -9 -29 -25 -47 -36 -39
-38 -47 -11 -51 12 -2 20 -7 20 -12 -2 -12 21 -26 45 -26 17 0 18 2 5 11 -11
8 -6 9 20 5 19 -3 116 -9 215 -12 99 -4 182 -10 185 -15 3 -4 48 -16 100 -27
119 -24 247 -20 268 9 16 23 38 24 85 4 20 -8 38 -15 40 -15 10 0 31 226 32
330 l0 115 -255 -2 c-140 -1 -275 -3 -299 -5 -57 -5 -72 -26 -48 -67 22 -37
22 -51 -2 -51 -10 0 -31 16 -45 35 -25 32 -31 35 -81 35 -48 0 -58 -4 -91 -35
-21 -20 -42 -34 -48 -32 -6 2 -13 19 -16 38 l-5 34 -145 7 c-80 4 -185 12
-235 17 -49 6 -117 11 -150 12 -83 0 -371 -54 -393 -75 -27 -23 -38 -20 -61
18 -21 33 -47 48 -105 62 -24 6 -77 45 -146 108 -8 8 -32 22 -52 32 -21 10
-38 21 -38 25 0 4 -17 14 -38 22 -21 8 -58 32 -82 53 -25 20 -64 46 -87 56
-40 18 -59 48 -30 48 22 0 131 -57 179 -93 26 -20 62 -43 80 -52 32 -15 69
-39 137 -90 53 -39 71 -34 71 21 0 38 3 45 17 42 12 -2 20 -16 24 -41 11 -71
76 -116 136 -96 37 12 54 6 35 -13 -32 -32 0 -34 138 -6 48 9 155 12 403 10
l338 -3 10 31 c13 35 20 37 44 10 15 -17 31 -20 104 -20 60 0 93 5 107 15 12
8 25 11 29 7 3 -4 5 -2 3 4 -5 17 101 134 122 134 31 0 33 -19 6 -41 -14 -11
-26 -26 -26 -33 0 -7 -11 -23 -25 -36 -31 -29 -32 -46 -2 -54 35 -9 500 -7
516 3 29 18 0 462 -45 702 -135 725 -490 1398 -1013 1919 -492 491 -1097 825
-1764 974 -320 72 -374 78 -747 81 -190 2 -361 1 -380 -1z m456 -2435 c32 -5
95 -21 140 -34 200 -61 265 -121 101 -95 -316 49 -329 48 -415 -34 -30 -28
-63 -69 -74 -90 l-20 -40 20 -15 c11 -9 34 -24 52 -34 39 -21 35 -37 -14 -56
-32 -12 -48 -12 -104 -2 -94 18 -150 45 -198 94 -68 70 -91 87 -118 87 -42 0
-115 -42 -204 -120 -100 -86 -118 -88 -114 -11 5 93 96 219 171 236 38 8 178
-36 219 -69 19 -14 39 -21 67 -20 22 1 52 2 67 3 37 1 99 58 144 132 32 51 42
60 78 68 57 13 132 13 202 0z m944 -584 c-7 -8 -21 -15 -32 -15 -18 0 -68 -14
-153 -42 -16 -6 -61 -16 -100 -23 -68 -13 -208 -64 -227 -83 -6 -6 -6 -18 1
-30 16 -30 14 -37 -14 -50 -42 -19 -61 -14 -99 26 -36 36 -38 37 -109 37 -87
0 -312 -21 -422 -40 -89 -14 -126 -3 -45 14 28 6 59 11 70 11 10 0 74 16 142
35 99 28 151 37 268 44 125 8 162 15 259 46 87 28 144 39 254 50 78 7 158 18
177 23 19 6 37 10 39 11 2 1 -2 -6 -9 -14z m-2270 -675 c52 -11 131 -20 175
-20 98 0 128 -15 123 -62 -2 -17 -10 -35 -18 -39 -8 -5 -63 -11 -123 -15 -74
-4 -112 -10 -122 -21 -12 -12 -15 -51 -15 -206 0 -280 -19 -723 -33 -766 -11
-31 -16 -36 -48 -39 -24 -2 -40 2 -50 14 -15 19 -23 181 -35 697 -7 326 6 297
-146 322 -54 8 -104 18 -113 21 -20 8 -20 68 0 84 8 7 63 16 122 21 60 5 124
13 143 18 19 5 37 9 40 10 3 0 48 -8 100 -19z m-2180 -5 c16 -20 29 -257 30
-565 0 -260 13 -355 52 -398 62 -67 202 -87 293 -42 80 40 84 55 89 331 9 420
18 654 28 672 12 22 71 23 94 0 15 -15 16 -34 11 -157 -3 -77 -1 -150 4 -164
14 -36 27 -444 17 -541 -12 -129 -65 -223 -150 -267 -51 -26 -178 -54 -249
-54 -81 0 -181 29 -236 69 -23 16 -50 49 -64 77 -24 49 -24 51 -29 459 -6 460
-1 562 26 582 24 18 69 16 84 -2z m2798 2 c14 -17 36 -364 28 -457 -3 -41 -2
-157 3 -257 8 -159 11 -186 31 -221 40 -72 145 -110 250 -90 139 26 146 41
155 388 4 146 8 345 10 443 2 119 7 183 15 193 16 18 74 18 89 0 8 -10 12 -59
11 -153 -1 -76 3 -160 8 -188 17 -87 26 -503 12 -571 -39 -187 -158 -269 -395
-269 -100 0 -116 3 -170 28 -71 33 -100 58 -128 112 -21 39 -22 54 -27 490 -3
248 -3 470 1 494 3 25 14 50 25 58 23 17 68 17 82 0z m-1821 -29 c12 -13 76
-133 143 -268 138 -278 258 -500 270 -500 19 0 32 62 26 118 -4 32 -2 89 3
127 6 39 13 164 17 279 6 184 9 211 26 228 10 10 29 18 42 18 52 0 51 7 51
-564 0 -486 -1 -534 -17 -563 -35 -62 -101 -56 -153 15 -51 70 -113 182 -146
263 -27 66 -65 151 -190 419 -27 58 -55 106 -63 108 -18 4 -28 -215 -24 -533
3 -205 1 -234 -15 -262 -9 -18 -28 -35 -40 -38 -32 -8 -76 11 -86 37 -5 13 -5
97 0 188 4 91 13 311 19 490 16 456 15 441 31 451 27 17 84 10 106 -13z m2101
-1220 c3 -15 -4 -18 -42 -18 -40 0 -46 3 -46 21 0 18 5 20 42 17 31 -2 44 -8
46 -20z m-2647 -57 c20 -16 24 -30 27 -95 4 -76 -21 -206 -39 -206 -5 0 -9 4
-9 9 0 5 -21 14 -46 20 -61 16 -78 54 -72 164 4 63 9 82 28 102 29 31 78 33
111 6z m669 -6 c22 -20 27 -65 8 -65 -7 0 -22 12 -33 27 -17 21 -27 25 -48 19
-20 -5 -27 -13 -27 -31 0 -20 11 -29 58 -52 50 -24 58 -33 66 -66 8 -31 6 -42
-11 -65 -18 -24 -27 -27 -78 -27 -51 0 -60 3 -78 28 -17 22 -18 29 -8 40 10
10 16 7 33 -15 27 -38 83 -40 100 -3 14 30 -1 52 -52 73 -79 32 -100 83 -58
137 19 24 26 27 65 22 24 -2 53 -13 63 -22z m695 4 c16 -16 -7 -28 -60 -31
-48 -3 -50 -4 -50 -33 0 -29 2 -30 50 -35 36 -4 50 -9 50 -20 0 -11 -15 -16
-55 -20 l-55 -5 0 -45 0 -45 58 -3 c49 -3 58 -6 55 -20 -3 -14 -15 -17 -71
-15 -38 0 -71 4 -75 8 -10 10 -15 169 -7 221 5 33 12 48 28 54 25 11 117 3
132 -11z m428 15 c25 -8 21 -18 -13 -31 l-30 -11 0 -94 c0 -113 -6 -138 -32
-138 -18 0 -19 6 -17 113 2 61 0 118 -5 125 -4 6 -18 12 -32 12 -13 0 -24 6
-24 13 0 10 19 14 68 14 37 1 75 -1 85 -3z m660 -25 c10 -12 16 -29 15 -38 -5
-25 -32 -24 -43 1 -12 27 -56 36 -74 14 -20 -24 -4 -55 37 -66 49 -14 71 -32
81 -67 10 -35 -8 -87 -34 -97 -37 -14 -99 -6 -122 16 -13 12 -23 27 -23 34 0
25 21 25 41 0 36 -45 103 -31 97 20 -2 24 -12 33 -56 54 -29 14 -57 32 -62 40
-17 26 -11 73 13 98 19 20 29 23 67 19 30 -3 50 -12 63 -28z m187 -41 c36
-116 58 -202 54 -210 -7 -11 -34 3 -34 18 0 7 -11 21 -25 30 -35 23 -74 11
-88 -26 -6 -17 -17 -30 -24 -30 -17 0 -17 -6 13 113 45 181 43 177 63 177 15
0 24 -16 41 -72z m253 40 c16 -22 20 -42 19 -114 -1 -111 -17 -138 -84 -142
-58 -4 -76 16 -90 100 -21 121 15 192 94 186 31 -2 46 -10 61 -30z m-2773 -97
c5 -118 11 -131 56 -131 36 0 43 22 46 136 2 89 6 109 18 109 12 0 15 -20 15
-117 0 -109 -1 -118 -24 -142 -40 -43 -111 -35 -136 15 -16 29 -22 229 -8 243
20 20 28 -9 33 -113z m350 105 c0 -9 -12 -16 -27 -18 l-28 -3 0 -105 0 -105
28 -3 c15 -2 27 -9 27 -18 0 -11 -17 -14 -80 -14 -63 0 -80 3 -80 14 0 9 12
16 28 18 l27 3 0 105 0 105 -28 1 c-32 1 -42 8 -32 23 3 6 40 11 86 11 62 0
79 -3 79 -14z m408 -91 c43 -130 50 -175 28 -175 -10 0 -21 13 -27 30 -19 53
-89 53 -107 0 -11 -30 -42 -42 -42 -16 12 48 157 79 239 6 16 17 27 24 25 6
-2 27 -48 45 -103z m602 70 c24 -39 33 -38 55 6 15 29 38 38 50 19 3 -5 -6
-27 -20 -47 -33 -49 -32 -85 5 -150 17 -30 28 -58 25 -63 -13 -22 -36 -7 -57
35 -12 25 -28 45 -35 45 -7 0 -22 -18 -33 -39 -23 -45 -37 -58 -52 -43 -6 6 1
28 21 64 36 64 38 90 11 143 -11 22 -20 45 -20 52 0 25 29 13 50 -22z m543 21
c8 -21 -2 -26 -53 -26 -54 0 -72 -14 -59 -47 7 -19 16 -23 53 -23 41 0 66 -13
53 -27 -3 -3 -30 -8 -59 -12 -51 -6 -53 -7 -56 -39 -5 -47 12 -62 69 -62 37 0
49 -4 49 -15 0 -12 -14 -15 -70 -15 -66 0 -71 1 -80 26 -15 37 -13 227 2 242
18 18 144 16 151 -2z m137 -76 l45 -84 5 84 c3 53 9 85 17 87 19 7 27 -42 27
-162 1 -95 -1 -110 -16 -113 -11 -2 -31 21 -65 78 l-48 81 -5 -78 c-4 -60 -8
-78 -20 -78 -12 0 -15 23 -18 138 -2 128 -1 138 15 135 11 -2 36 -38 63 -88z
m-1076 4 c18 -18 21 -56 6 -85 -12 -22 -68 -27 -88 -7 -17 17 -15 68 5 90 20
22 56 23 77 2z"/>
<path d="M2531 2966 c-8 -9 -11 -44 -9 -103 3 -80 5 -88 23 -91 12 -2 31 8 45
23 28 30 38 116 18 155 -16 29 -59 38 -77 16z"/>
<path d="M5207 2913 c-2 -5 -7 -25 -11 -45 -7 -37 -6 -38 24 -38 34 0 34 1 19
53 -9 35 -22 47 -32 30z"/>
<path d="M5418 2966 c-22 -21 -32 -140 -16 -174 16 -34 65 -43 85 -16 17 23
17 141 0 174 -15 29 -48 37 -69 16z"/>
<path d="M3431 2904 c-17 -60 -14 -74 13 -74 33 0 37 10 25 56 -16 57 -26 62
-38 18z"/>
<path d="M540 4366 c-152 -34 -233 -114 -276 -273 -18 -69 -20 -284 -4 -438
24 -223 31 -260 54 -311 14 -30 47 -76 74 -103 110 -110 309 -120 437 -23 59
45 99 114 125 216 17 67 20 117 22 345 3 233 1 274 -15 330 -47 166 -118 238
-258 261 -77 12 -89 12 -159 -4z m171 -182 c41 -21 85 -85 97 -142 33 -151 45
-277 39 -420 -8 -209 -34 -280 -115 -321 -58 -29 -107 -34 -166 -17 -71 21
-116 71 -146 162 -23 68 -23 71 -12 279 17 312 31 373 100 439 50 47 135 55
203 20z"/>
<path d="M1237 4305 c-21 -20 -25 -44 -42 -250 -10 -115 -15 -306 -15 -536 0
-318 2 -358 16 -370 16 -13 64 -14 264 -7 25 1 83 -2 130 -6 75 -7 92 -5 142
13 129 49 182 151 182 351 0 128 -16 180 -75 247 -36 41 -35 55 7 153 35 84
37 186 4 274 -49 128 -99 146 -397 146 -165 0 -204 -3 -216 -15z m436 -138
c39 -25 57 -58 64 -114 7 -62 -9 -113 -49 -159 l-30 -34 -147 0 c-128 0 -150
2 -163 18 -20 23 -20 260 0 285 19 22 41 25 177 24 97 -2 126 -6 148 -20z m-95
-446 c154 -15 202 -64 210 -218 4 -70 1 -88 -18 -128 -35 -72 -77 -94 -201
-107 -118 -12 -212 -6 -236 14 -14 11 -15 37 -10 213 6 189 7 201 28 217 24 21
81 23 227 9z"/>
<path d="M745 3008 c-28 -16 -35 -28 -35 -63 0 -42 12 -56 72 -85 59 -28 73
-57 42 -91 -24 -27 -51 -24 -84 10 -29 28 -40 30 -40 4 0 -28 39 -53 83 -53
112 0 132 114 28 159 -61 26 -76 43 -61 70 16 31 67 28 82 -4 13 -29 32 -28
36 1 6 41 -80 77 -123 52z"/>
<path d="M1410 3007 c-41 -21 -52 -53 -46 -141 6 -102 25 -131 86 -131 35 0
47 5 63 28 18 23 21 42 22 118 0 87 -1 92 -28 115 -31 27 -60 30 -97 11z m74
-46 c25 -28 34 -143 12 -176 -20 -30 -56 -33 -81 -5 -25 28 -18 165 10 186 25
19 39 18 59 -5z"/>
<path d="M1837 3012 c-3 -4 -7 -66 -8 -137 -3 -109 -1 -130 11 -130 10 0 17
14 20 45 4 39 8 45 30 48 79 9 110 33 110 88 0 48 -14 70 -51 83 -36 13 -106
15 -112 3z m113 -42 c24 -24 25 -38 4 -68 -11 -16 -25 -22 -55 -22 l-39 0 0
48 c0 27 3 52 7 55 14 14 64 6 83 -13z"/>
<path d="M287 2997 c-15 -11 -17 -28 -15 -137 l3 -125 64 -3 c107 -5 127 19
23 28 l-57 5 0 45 0 45 49 7 c81 11 87 20 21 32 -57 11 -60 13 -60 41 0 28 3
30 54 38 61 8 66 11 56 26 -9 15 -117 14 -138 -2z"/>
<path d="M492 2876 c3 -154 20 -185 28 -50 l5 86 53 -92 c30 -50 59 -89 65
-87 14 4 17 229 4 261 -13 33 -21 7 -27 -82 l-5 -87 -50 89 c-27 49 -56 92
-63 94 -10 3 -12 -25 -10 -132z"/>
<path d="M930 2995 c0 -10 10 -15 29 -15 37 0 40 -10 40 -120 -1 -91 -8 -110
-45 -110 -13 0 -24 -4 -24 -10 0 -6 34 -10 81 -10 59 0 80 3 77 12 -3 7 -15
15 -29 18 -23 6 -24 8 -24 110 0 101 1 104 23 110 49 11 25 25 -50 28 -65 2
-78 0 -78 -13z"/>
<path d="M1152 2876 c3 -154 20 -185 28 -50 l5 86 50 -89 c67 -117 79 -116 83
10 3 104 -14 199 -29 162 -4 -11 -8 -56 -8 -100 l-1 -80 -53 94 c-28 52 -58
96 -65 99 -10 3 -12 -25 -10 -132z"/>
<path d="M1638 2928 c-24 -19 -30 -61 -12 -86 30 -44 94 -18 94 38 0 50 -46
76 -82 48z"/>
</g>
</svg>
